<svg width="49" height="18" viewBox="0 0 49 18" fill="none" xmlns="http://www.w3.org/2000/svg">
<path d="M6.858 4.516H10.152V2.554H1.044V4.516H4.482V5.434C4.482 8.17 3.132 11.284 0.414 12.544L1.746 14.434C3.636 13.534 4.968 11.716 5.706 9.556C6.444 11.518 7.74 13.174 9.576 14.02L10.89 12.148C8.172 10.888 6.858 7.954 6.858 5.434V4.516ZM16.164 7.288H13.752V0.969999H11.376V17.548H13.752V9.25H16.164V7.288ZM24.6226 3.418C26.7826 3.418 28.1686 4.066 28.1686 5.236C28.1686 6.424 26.7826 7.054 24.6226 7.054C22.4446 7.054 21.0586 6.424 21.0586 5.236C21.0586 4.066 22.4446 3.418 24.6226 3.418ZM24.6226 8.944C28.1506 8.944 30.6166 7.504 30.6166 5.236C30.6166 2.986 28.1506 1.528 24.6226 1.528C21.0766 1.528 18.6286 2.986 18.6286 5.236C18.6286 7.504 21.0766 8.944 24.6226 8.944ZM32.1646 10.186H17.1526V12.112H20.5546V17.53H22.9486V12.112H26.2786V17.53H28.6906V12.112H32.1646V10.186ZM35.1872 14.488H44.2952V17.566H46.6712V12.616H35.1872V14.488ZM42.1892 9.754V8.566H46.9232V6.766H37.7432V5.794H46.4012V4.066H37.7432V3.166H46.7972V1.366H35.3852V8.566H39.8132V9.754H33.5132V11.644H48.5072V9.754H42.1892Z" fill="#1D232B"/>
</svg>
